<svg xmlns="http://www.w3.org/2000/svg" viewBox="0 0 600 900" width="100%" height="100%">
      <defs>
        <linearGradient id="grad_al_ch1_p1" x1="0%" y1="0%" x2="0%" y2="100%">
          <stop offset="0%" stop-color="#1e140a"/>
          <stop offset="100%" stop-color="#100b05"/>
        </linearGradient>
        <filter id="shadow">
          <feDropShadow dx="3" dy="5" stdDeviation="4" flood-opacity="0.3"/>
        </filter>
        <filter id="bubbleShadow">
          <feDropShadow dx="1" dy="2" stdDeviation="2" flood-color="#000" flood-opacity="0.2"/>
        </filter>
        <filter id="glow">
          <feGaussianBlur stdDeviation="6" result="blur"/>
          <feComposite in="SourceGraphic" in2="blur" operator="over"/>
        </filter>
      </defs>
      <rect width="600" height="900" fill="url(#grad_al_ch1_p1)"/>
      <rect x="0" y="0" width="600" height="40" fill="#000000" opacity="0.4"/>
      <text x="20" y="25" font-family="'Inter', sans-serif" font-size="12" font-weight="700" fill="#ffffff" opacity="0.8">THE LOST ALCHEMIST</text>
      <text x="580" y="25" text-anchor="end" font-family="'Inter', sans-serif" font-size="12" font-weight="700" fill="#f59e0b">CHAPTER 1: THE GOLDEN FORMULA - PAGE 1</text>
      <g filter="url(#shadow)">
        <rect x="30" y="70" width="540" height="240" rx="8" fill="#000000" opacity="0.5" stroke="#f59e0b" stroke-width="2"/>
        <g opacity="0.15" stroke="#ffffff" stroke-width="2">
          <line x1="30" y1="70" x2="150" y2="190"/>
          <line x1="570" y1="70" x2="450" y2="190"/>
          <line x1="30" y1="310" x2="150" y2="190"/>
          <line x1="570" y1="310" x2="450" y2="190"/>
          <line x1="300" y1="70" x2="300" y2="310"/>
          <line x1="30" y1="190" x2="570" y2="190"/>
        </g>
        <circle cx="150" cy="190" r="40" fill="#f59e0b" opacity="0.4" filter="url(#glow)"/>
        <line x1="150" y1="190" x2="450" y2="190" stroke="#ffffff" stroke-width="4" stroke-dasharray="10 5"/>
        <g filter="url(#bubbleShadow)" transform="translate(320, 110)">
          <path d="M 10 0 L 200 0 A 10 10 0 0 1 210 10 L 210 60 A 10 10 0 0 1 200 70 L 40 70 L 20 85 L 30 70 L 10 70 A 10 10 0 0 1 0 60 L 0 10 A 10 10 0 0 1 10 0 Z" fill="#ffffff"/>
          <text x="105" y="32" text-anchor="middle" font-family="'Inter', sans-serif" font-size="12" font-weight="700" fill="#000000">Aurelia: The secret archive...</text>
          <text x="105" y="48" text-anchor="middle" font-family="'Inter', sans-serif" font-size="12" font-weight="700" fill="#000000">Locked for a hundred years.</text>
        </g>
      </g>
      <g filter="url(#shadow)">
        <rect x="30" y="340" width="540" height="260" rx="8" fill="#000000" opacity="0.6" stroke="#f59e0b" stroke-width="2"/>
        <g stroke="#f59e0b" stroke-width="1" opacity="0.3">
          <line x1="30" y1="470" x2="570" y2="470"/>
          <line x1="120" y1="340" x2="120" y2="600"/>
          <line x1="480" y1="340" x2="480" y2="600"/>
        </g>
        <polygon points="300,370 340,450 260,450" fill="#ffffff" opacity="0.2"/>
        <circle cx="300" cy="470" r="30" fill="none" stroke="#ffffff" stroke-width="3" opacity="0.4" stroke-dasharray="5 3"/>
        <g filter="url(#bubbleShadow)" transform="translate(60, 470)">
          <path d="M 10 0 L 220 0 A 10 10 0 0 1 230 10 L 230 60 A 10 10 0 0 1 220 70 L 190 70 L 200 85 L 170 70 L 10 70 A 10 10 0 0 1 0 60 L 0 10 A 10 10 0 0 1 10 0 Z" fill="#ffffff"/>
          <text x="115" y="32" text-anchor="middle" font-family="'Inter', sans-serif" font-size="12" font-weight="700" fill="#000000">Aurelia: The philosopher's gold!</text>
          <text x="115" y="48" text-anchor="middle" font-family="'Inter', sans-serif" font-size="12" font-weight="700" fill="#000000">It's detailed right here!</text>
        </g>
      </g>
      <g filter="url(#shadow)">
        <rect x="30" y="630" width="540" height="210" rx="8" fill="#000000" opacity="0.7" stroke="#ffffff" stroke-width="1.5" stroke-dasharray="6 3"/>
        <path d="M 30 735 Q 300 680 570 735 L 570 840 L 30 840 Z" fill="#f59e0b" opacity="0.2"/>
        <text x="300" y="700" text-anchor="middle" font-family="'Outfit', sans-serif" font-size="18" font-weight="900" fill="#ffffff" letter-spacing="2">THWIP! WHOOSH!</text>
        <text x="300" y="760" text-anchor="middle" font-family="'Inter', sans-serif" font-size="14" font-weight="500" fill="#94a3b8">The journey continues in the next chapter...</text>
      </g>
      <text x="300" y="880" text-anchor="middle" font-family="'Outfit', sans-serif" font-size="12" font-weight="700" fill="#ffffff" opacity="0.2" letter-spacing="4">TOONVERSE WEBTOON READER</text>
    </svg>