<svg xmlns="http://www.w3.org/2000/svg" viewBox="0 0 600 800" width="100%" height="100%">
      <defs>
        <linearGradient id="bg" x1="0%" y1="0%" x2="0%" y2="100%">
          <stop offset="0%" stop-color="#140f07"/>
          <stop offset="50%" stop-color="#2d1c08"/>
          <stop offset="100%" stop-color="#100b05"/>
        </linearGradient>
        <radialGradient id="magicCircleGlow" cx="50%" cy="50%" r="50%">
          <stop offset="0%" stop-color="#f59e0b" stop-opacity="0.8"/>
          <stop offset="50%" stop-color="#b45309" stop-opacity="0.3"/>
          <stop offset="100%" stop-color="#000" stop-opacity="0"/>
        </radialGradient>
        <filter id="glow" x="-20%" y="-20%" width="140%" height="140%">
          <feGaussianBlur stdDeviation="8" result="blur" />
          <feComposite in="SourceGraphic" in2="blur" operator="over" />
        </filter>
      </defs>
      <rect width="600" height="800" fill="url(#bg)"/>
      <circle cx="300" cy="500" r="220" fill="url(#magicCircleGlow)"/>
      <circle cx="300" cy="500" r="180" fill="none" stroke="#f59e0b" stroke-width="2" opacity="0.6" filter="url(#glow)"/>
      <circle cx="300" cy="500" r="140" fill="none" stroke="#f59e0b" stroke-width="1.5" stroke-dasharray="10 5" opacity="0.8"/>
      <polygon points="300,320 455,590 145,590" fill="none" stroke="#d97706" stroke-width="2" opacity="0.6" filter="url(#glow)"/>
      <polygon points="300,680 145,410 455,410" fill="none" stroke="#d97706" stroke-width="2" opacity="0.6" filter="url(#glow)"/>
      <rect x="20" y="20" width="560" height="760" rx="8" fill="none" stroke="#d97706" stroke-width="2" opacity="0.4"/>
      <rect x="30" y="30" width="540" height="740" rx="6" fill="none" stroke="#d97706" stroke-width="0.8" opacity="0.2"/>
      <text x="300" y="508" text-anchor="middle" font-family="serif" font-size="28" font-weight="700" fill="#fef08a" opacity="0.8" filter="url(#glow)">🜂 🜔 🜁 🜃</text>
      <text x="300" y="160" text-anchor="middle" font-family="'Outfit', serif" font-size="46" font-weight="900" fill="#fef08a" filter="url(#glow)">THE LOST</text>
      <text x="300" y="225" text-anchor="middle" font-family="'Outfit', serif" font-size="54" font-weight="900" fill="#f59e0b" filter="url(#glow)">ALCHEMIST</text>
      <line x1="200" y1="260" x2="400" y2="260" stroke="#f59e0b" stroke-width="2"/>
      <path d="M 270 420 L 330 420 L 310 490 Q 300 500 300 510 Q 300 520 310 530 L 330 600 L 270 600 L 290 530 Q 300 520 300 510 Q 300 500 290 490 Z" fill="#1e130a" stroke="#d97706" stroke-width="4"/>
      <path d="M 280 560 L 320 560 L 330 600 L 270 600 Z" fill="#ef4444" filter="url(#glow)" opacity="0.8"/>
      <circle cx="300" cy="570" r="5" fill="#ffffff" opacity="0.9"/>
      <circle cx="315" cy="585" r="3" fill="#ffffff" opacity="0.9"/>
      <text x="300" y="730" text-anchor="middle" font-family="'Inter', sans-serif" font-size="16" font-weight="600" fill="#d97706">BY AURELIA VANCE</text>
    </svg>