<svg xmlns="http://www.w3.org/2000/svg" viewBox="0 0 600 800" width="100%" height="100%">
      <defs>
        <linearGradient id="bg" x1="0%" y1="0%" x2="100%" y2="100%">
          <stop offset="0%" stop-color="#05050d"/>
          <stop offset="50%" stop-color="#0c0f26"/>
          <stop offset="100%" stop-color="#1c052a"/>
        </linearGradient>
        <linearGradient id="neonGlow" x1="0%" y1="0%" x2="100%" y2="0%">
          <stop offset="0%" stop-color="#00f2fe"/>
          <stop offset="100%" stop-color="#bd00ff"/>
        </linearGradient>
        <filter id="glow" x="-20%" y="-20%" width="140%" height="140%">
          <feGaussianBlur stdDeviation="10" result="blur" />
          <feComposite in="SourceGraphic" in2="blur" operator="over" />
        </filter>
      </defs>
      <rect width="600" height="800" fill="url(#bg)"/>
      <g opacity="0.1">
        <line x1="50" y1="0" x2="50" y2="800" stroke="#00f2fe" stroke-width="1"/>
        <line x1="150" y1="0" x2="150" y2="800" stroke="#00f2fe" stroke-width="1"/>
        <line x1="250" y1="0" x2="250" y2="800" stroke="#00f2fe" stroke-width="1"/>
        <line x1="350" y1="0" x2="350" y2="800" stroke="#00f2fe" stroke-width="1"/>
        <line x1="450" y1="0" x2="450" y2="800" stroke="#00f2fe" stroke-width="1"/>
        <line x1="550" y1="0" x2="550" y2="800" stroke="#00f2fe" stroke-width="1"/>
        <line x1="0" y1="100" x2="600" y2="100" stroke="#bd00ff" stroke-width="1"/>
        <line x1="0" y1="200" x2="600" y2="200" stroke="#bd00ff" stroke-width="1"/>
        <line x1="0" y1="300" x2="600" y2="300" stroke="#bd00ff" stroke-width="1"/>
        <line x1="0" y1="400" x2="600" y2="400" stroke="#bd00ff" stroke-width="1"/>
        <line x1="0" y1="500" x2="600" y2="500" stroke="#bd00ff" stroke-width="1"/>
        <line x1="0" y1="600" x2="600" y2="600" stroke="#bd00ff" stroke-width="1"/>
      </g>
      <path d="M 0 500 L 100 350 L 120 350 L 150 400 L 220 280 L 250 280 L 300 480 L 400 320 L 450 320 L 500 420 L 600 250 L 600 800 L 0 800 Z" fill="#0d0e1b"/>
      <path d="M 0 550 L 80 450 L 140 500 L 190 380 L 260 490 L 380 340 L 420 340 L 480 470 L 600 380 L 600 800 L 0 800 Z" fill="#131730" opacity="0.8"/>
      <ellipse cx="300" cy="500" rx="200" ry="10" fill="none" stroke="#bd00ff" stroke-width="2" opacity="0.3" filter="url(#glow)"/>
      <ellipse cx="300" cy="530" rx="350" ry="15" fill="none" stroke="#00f2fe" stroke-width="2" opacity="0.4" filter="url(#glow)"/>
      <text x="300" y="160" text-anchor="middle" font-family="'Outfit', sans-serif" font-size="52" font-weight="900" fill="#00f2fe" filter="url(#glow)">CYBERPUNK</text>
      <text x="300" y="220" text-anchor="middle" font-family="'Outfit', sans-serif" font-size="44" font-weight="900" fill="#bd00ff" filter="url(#glow)">ODYSSEY</text>
      <text x="300" y="270" text-anchor="middle" font-family="'Inter', sans-serif" font-size="20" font-weight="700" fill="#ffffff" letter-spacing="8">NEO-TOKYO</text>
      <path d="M 300 450 Q 280 430 260 450 T 220 520 T 180 620 L 180 800 L 420 800 L 420 620 T 380 520 T 340 450 Z" fill="#06070c"/>
      <circle cx="300" cy="420" r="30" fill="#06070c"/>
      <path d="M 285 418 L 315 418" stroke="#00f2fe" stroke-width="6" stroke-linecap="round" filter="url(#glow)"/>
      <path d="M 270 410 L 285 418 L 280 430 Z" fill="#bd00ff" opacity="0.7"/>
      <rect x="50" y="700" width="160" height="36" rx="18" fill="url(#neonGlow)"/>
      <text x="130" y="723" text-anchor="middle" font-family="'Inter', sans-serif" font-size="13" font-weight="800" fill="#000000">WEBTOON ORIGINAL</text>
      <text x="550" y="760" text-anchor="end" font-family="'Inter', sans-serif" font-size="14" font-weight="600" fill="#94a3b8">BY JAX RAZER</text>
    </svg>