<svg xmlns="http://www.w3.org/2000/svg" viewBox="0 0 600 800" width="100%" height="100%">
      <defs>
        <linearGradient id="bg" x1="0%" y1="0%" x2="0%" y2="100%">
          <stop offset="0%" stop-color="#fff1f2"/>
          <stop offset="40%" stop-color="#ffe4e6"/>
          <stop offset="100%" stop-color="#fecdd3"/>
        </linearGradient>
        <filter id="shadow">
          <feDropShadow dx="2" dy="4" stdDeviation="4" flood-opacity="0.15"/>
        </filter>
        <filter id="glow">
          <feGaussianBlur stdDeviation="4" result="blur"/>
          <feComposite in="SourceGraphic" in2="blur" operator="over"/>
        </filter>
      </defs>
      <rect width="600" height="800" fill="url(#bg)"/>
      <g fill="#fda4af" opacity="0.7">
        <path d="M 50 150 Q 55 140 65 145 T 75 160 T 60 170 Z" transform="rotate(15, 60, 155)"/>
        <path d="M 500 200 Q 505 190 515 195 T 525 210 T 510 220 Z" transform="rotate(-10, 510, 205)"/>
        <path d="M 120 500 Q 125 490 135 495 T 145 510 T 130 520 Z" transform="rotate(45, 130, 505)"/>
        <path d="M 450 620 Q 455 610 465 615 T 475 630 T 460 640 Z" transform="rotate(30, 460, 625)"/>
        <path d="M 280 80 Q 285 70 295 75 T 305 90 T 290 100 Z" transform="rotate(-25, 290, 90)"/>
      </g>
      <path d="M 300 480 C 300 480 180 380 180 280 C 180 190 250 160 300 220 C 350 160 420 190 420 280 C 420 380 300 480 300 480 Z" fill="#ffb7c5" opacity="0.5" filter="url(#glow)"/>
      <g transform="translate(180, 450)" filter="url(#shadow)">
        <path d="M 50 250 C 50 150 110 130 110 130 C 110 130 100 80 80 80 C 60 80 40 100 40 100 C 40 100 20 80 20 110 C 20 140 40 150 40 150 C 40 150 20 160 20 190 C 20 220 50 250 50 250 Z" fill="#e11d48"/>
        <path d="M 190 250 C 190 150 130 130 130 130 C 130 130 140 80 160 80 C 180 80 200 100 200 100 C 200 100 220 80 220 110 C 220 140 200 150 200 150 C 200 150 220 160 220 190 C 220 220 190 250 190 250 Z" fill="#0284c7"/>
      </g>
      <line x1="300" y1="120" x2="300" y2="700" stroke="#db2777" stroke-width="2" stroke-dasharray="10 6" opacity="0.4"/>
      <text x="300" y="160" text-anchor="middle" font-family="'Outfit', sans-serif" font-size="44" font-weight="900" fill="#be123c" filter="url(#glow)">LOVE IN</text>
      <text x="300" y="215" text-anchor="middle" font-family="'Outfit', sans-serif" font-size="40" font-weight="900" fill="#db2777">PARALLEL LINES</text>
      <text x="300" y="255" text-anchor="middle" font-family="'Inter', sans-serif" font-size="16" font-weight="700" fill="#e11d48" letter-spacing="4">A ROM-COM TALE</text>
      <path d="M 150 720 Q 300 700 450 720" fill="none" stroke="#db2777" stroke-width="4" stroke-linecap="round"/>
      <text x="300" y="760" text-anchor="middle" font-family="'Inter', sans-serif" font-size="15" font-weight="600" fill="#db2777">BY HARU &amp; YUKI</text>
    </svg>